<mxfile host="app.diagrams.net" agent="Mozilla/5.0 (Windows NT 10.0; Win64; x64) AppleWebKit/537.36 (KHTML, like Gecko) Chrome/129.0.0.0 Safari/537.36" version="24.7.17">
  <diagram id="C5RBs43oDa-KdzZeNtuy" name="Page-1">
    <mxGraphModel dx="880" dy="460" grid="1" gridSize="10" guides="1" tooltips="1" connect="1" arrows="1" fold="1" page="1" pageScale="1" pageWidth="827" pageHeight="1169" math="0" shadow="0">
      <root>
        <mxCell id="WIyWlLk6GJQsqaUBKTNV-0" />
        <mxCell id="WIyWlLk6GJQsqaUBKTNV-1" parent="WIyWlLk6GJQsqaUBKTNV-0" />
        <mxCell id="LTVsYqkKzvhBoSAa_5hR-6" value="" style="edgeStyle=orthogonalEdgeStyle;rounded=0;orthogonalLoop=1;jettySize=auto;html=1;entryX=0;entryY=0.5;entryDx=0;entryDy=0;exitX=1;exitY=0.5;exitDx=0;exitDy=0;" edge="1" parent="WIyWlLk6GJQsqaUBKTNV-1" source="LTVsYqkKzvhBoSAa_5hR-5" target="LTVsYqkKzvhBoSAa_5hR-3">
          <mxGeometry relative="1" as="geometry">
            <mxPoint x="210" y="150" as="sourcePoint" />
          </mxGeometry>
        </mxCell>
        <mxCell id="LTVsYqkKzvhBoSAa_5hR-10" value="" style="edgeStyle=orthogonalEdgeStyle;rounded=0;orthogonalLoop=1;jettySize=auto;html=1;" edge="1" parent="WIyWlLk6GJQsqaUBKTNV-1" source="LTVsYqkKzvhBoSAa_5hR-3" target="LTVsYqkKzvhBoSAa_5hR-9">
          <mxGeometry relative="1" as="geometry" />
        </mxCell>
        <mxCell id="LTVsYqkKzvhBoSAa_5hR-3" value="Create Employee" style="whiteSpace=wrap;html=1;rounded=1;glass=0;strokeWidth=1;shadow=0;" vertex="1" parent="WIyWlLk6GJQsqaUBKTNV-1">
          <mxGeometry x="260" y="80" width="120" height="60" as="geometry" />
        </mxCell>
        <mxCell id="LTVsYqkKzvhBoSAa_5hR-5" value="Create User" style="whiteSpace=wrap;html=1;rounded=1;glass=0;strokeWidth=1;shadow=0;" vertex="1" parent="WIyWlLk6GJQsqaUBKTNV-1">
          <mxGeometry x="50" y="80" width="120" height="60" as="geometry" />
        </mxCell>
        <mxCell id="LTVsYqkKzvhBoSAa_5hR-9" value="Give Role Permission" style="whiteSpace=wrap;html=1;rounded=1;glass=0;strokeWidth=1;shadow=0;" vertex="1" parent="WIyWlLk6GJQsqaUBKTNV-1">
          <mxGeometry x="460" y="80" width="120" height="60" as="geometry" />
        </mxCell>
        <mxCell id="LTVsYqkKzvhBoSAa_5hR-15" value="" style="edgeStyle=orthogonalEdgeStyle;rounded=0;orthogonalLoop=1;jettySize=auto;html=1;" edge="1" parent="WIyWlLk6GJQsqaUBKTNV-1" source="LTVsYqkKzvhBoSAa_5hR-13" target="LTVsYqkKzvhBoSAa_5hR-14">
          <mxGeometry relative="1" as="geometry" />
        </mxCell>
        <mxCell id="LTVsYqkKzvhBoSAa_5hR-13" value="Create Shift" style="rounded=1;whiteSpace=wrap;html=1;" vertex="1" parent="WIyWlLk6GJQsqaUBKTNV-1">
          <mxGeometry x="50" y="230" width="120" height="60" as="geometry" />
        </mxCell>
        <mxCell id="LTVsYqkKzvhBoSAa_5hR-14" value="Assign Shift to Employee" style="whiteSpace=wrap;html=1;rounded=1;" vertex="1" parent="WIyWlLk6GJQsqaUBKTNV-1">
          <mxGeometry x="250" y="230" width="120" height="60" as="geometry" />
        </mxCell>
        <mxCell id="LTVsYqkKzvhBoSAa_5hR-18" value="" style="edgeStyle=orthogonalEdgeStyle;rounded=0;orthogonalLoop=1;jettySize=auto;html=1;" edge="1" parent="WIyWlLk6GJQsqaUBKTNV-1" source="LTVsYqkKzvhBoSAa_5hR-16" target="LTVsYqkKzvhBoSAa_5hR-17">
          <mxGeometry relative="1" as="geometry" />
        </mxCell>
        <mxCell id="LTVsYqkKzvhBoSAa_5hR-16" value="Leave Type" style="rounded=1;whiteSpace=wrap;html=1;" vertex="1" parent="WIyWlLk6GJQsqaUBKTNV-1">
          <mxGeometry x="50" y="380" width="120" height="60" as="geometry" />
        </mxCell>
        <mxCell id="LTVsYqkKzvhBoSAa_5hR-20" value="" style="edgeStyle=orthogonalEdgeStyle;rounded=0;orthogonalLoop=1;jettySize=auto;html=1;" edge="1" parent="WIyWlLk6GJQsqaUBKTNV-1" source="LTVsYqkKzvhBoSAa_5hR-17" target="LTVsYqkKzvhBoSAa_5hR-19">
          <mxGeometry relative="1" as="geometry" />
        </mxCell>
        <mxCell id="LTVsYqkKzvhBoSAa_5hR-17" value="Leave policy" style="whiteSpace=wrap;html=1;rounded=1;" vertex="1" parent="WIyWlLk6GJQsqaUBKTNV-1">
          <mxGeometry x="250" y="380" width="120" height="60" as="geometry" />
        </mxCell>
        <mxCell id="LTVsYqkKzvhBoSAa_5hR-19" value="Leave Policy Assignment" style="whiteSpace=wrap;html=1;rounded=1;" vertex="1" parent="WIyWlLk6GJQsqaUBKTNV-1">
          <mxGeometry x="450" y="380" width="120" height="60" as="geometry" />
        </mxCell>
      </root>
    </mxGraphModel>
  </diagram>
</mxfile>
